# xmcd
#
# Track frame offsets:
#	150
#	17917
#	36069
#	48761
#	64423
#	80935
#	85737
#	97564
#	121126
#	134688
#	149880
#	166322
#	180854
#	193331
#	211863
#	229845
#	244802
#	258949
#	276306
#	293793
#	306280
#	316857
#	325799
#	342031
#	359098
#
# Disc length: 4799 seconds
#
# Revision: 0
# Processed by: cddbd v1.5.2PL0 Copyright (c) Steve Scherf et al.
# Submitted via: dBpowerAMP V4.0
#
DISCID=7612bd19
DTITLE=Eduardo e Guilherme - Acustico 2005
DYEAR=2005
DGENRE=Sertanejo
TTITLE0=EU
TTITLE1=E
TTITLE2=VC
TTITLE3=EM
TTITLE4=PINHAL
TTITLE5=BEBADOS
TTITLE6=TENTANDO
TTITLE7=GRAVAR
TTITLE8=UM
TTITLE9=CD
TTITLE10=AO
TTITLE11=VIVO
TTITLE12=E
TTITLE13=ACUSTICO
TTITLE14=COM
TTITLE15=CENTENAS
TTITLE16=DE CÃES
TTITLE17=FAMINTOS
TTITLE18=NOS ASSISTINDO
TTITLE19=E 
TTITLE20=ESCULTANDO
TTITLE21=E 
TTITLE22=A 
TTITLE23=GALERA
TTITLE24=TABM
EXTD=Eduardo e Guilherme
EXTT0=
EXTT1=
EXTT2=
EXTT3=
EXTT4=
EXTT5=
EXTT6=
EXTT7=
EXTT8=
EXTT9=
EXTT10=
EXTT11=
EXTT12=
EXTT13=
EXTT14=
EXTT15=
EXTT16=
EXTT17=
EXTT18=
EXTT19=
EXTT20=
EXTT21=
EXTT22=
EXTT23=
EXTT24=
PLAYORDER=
